<?xml version="1.0" standalone="no"?><!DOCTYPE svg PUBLIC "-//W3C//DTD SVG 1.1//EN" "http://www.w3.org/Graphics/SVG/1.1/DTD/svg11.dtd"><svg width="200" height="200" viewBox="0 0 200 200" version="1.1" xmlns="http://www.w3.org/2000/svg" xmlns:xlink="http://www.w3.org/1999/xlink"><defs><style type="text/css"><![CDATA[
@font-face { font-family: ifont; src: url("//at.alicdn.com/t/font_1442373896_4754455.eot?#iefix") format("embedded-opentype"), url("//at.alicdn.com/t/font_1442373896_4754455.woff") format("woff"), url("//at.alicdn.com/t/font_1442373896_4754455.ttf") format("truetype"), url("//at.alicdn.com/t/font_1442373896_4754455.svg#ifont") format("svg"); }

]]></style></defs><g class="transform-group"><g transform="scale(0.1953125, 0.1953125)"><path d="M317.201916 538.039642c-13.006532 13.006532-33.90445 13.006532-46.907917 0l0 0c-12.940115-12.93705-12.940115-33.838033 0-46.8415L748.16885 13.389708c12.940115-12.940115 33.901385-12.940115 46.8415 0l0 0c12.940115 12.940115 12.940115 33.901385 0 46.8415L317.201916 538.039642zM795.075745 967.453435c12.940115 12.942159 12.940115 33.901385 0 46.844565l0 0c-12.939093 12.936028-33.90445 12.936028-46.844565 0L270.357351 536.423149c-12.940115-12.940115-12.940115-33.901385 0-46.8415l0 0c12.940115-12.940115 33.90445-12.940115 46.844565 0L795.075745 967.453435z" fill="#272636"></path></g></g></svg>