<?xml version="1.0" encoding="utf-8"?>
<!DOCTYPE svg PUBLIC "-//W3C//DTD SVG 1.1//EN" "http://www.w3.org/Graphics/SVG/1.1/DTD/svg11.dtd">
<svg style="width:308px;height:308px;" version="1.1" id="图形" xmlns="http://www.w3.org/2000/svg" xmlns:xlink="http://www.w3.org/1999/xlink" x="0px" y="0px" width="1024px" height="1024px" viewBox="0 0 1024 1024" enable-background="new 0 0 1024 1024" xml:space="preserve">
  <path class="svgpath" data-index="path_0" fill="#272636" d="M868.4 461l0-41.6c0-47.8-9.4-94.2-28.1-138.1-18-42.3-43.6-80.2-76.3-112.9C731.3 135.7 693.4 110 651.1 92 607.2 73.4 560.8 64 513 64c-47.8 0-94.2 9.4-138.1 28.1C332.6 110 294.7 135.7 262 168.4 229.3 201.1 203.7 239 185.7 281.3c-18.6 43.8-28.1 90.3-28.1 138.1l0 228.9L157.6 896c0 35.3 28.7 64 64 64l582.8 0c35.3 0 64-28.7 64-64L868.4 461zM224.4 419.4c0-76.7 30.1-149.1 84.8-203.8C363.9 161 436.3 130.8 513 130.8s149.1 30.1 203.8 84.8c54.7 54.7 84.8 127.1 84.8 203.8l0 32.7-577.2 0L224.4 419.4zM801.6 648.3l0 244.9L224.4 893.2 224.4 518.9l577.2 0L801.6 648.3z" />
<path class="svgpath" data-index="path_1" fill="#272636" d="M512 642m-66 0a66 66 0 1 0 132 0 66 66 0 1 0 -132 0Z" />
<path class="svgpath" data-index="path_2" fill="#272636" d="M480 800 480 691l64 0 0 109c0 17.7-14.3 32-32 32l0 0C494.3 832 480 817.7 480 800z" />

</svg>
